<svg width="175" height="332" viewBox="0 0 175 332" fill="none" xmlns="http://www.w3.org/2000/svg">
<path d="M53.2408 316.59H71.3008V235.903H53.2408V316.59Z" fill="#13847C"/>
<path d="M81.6052 331.91V323.106C81.6052 319.488 79.6659 316.593 77.2417 316.593H47.4246C45.0005 316.593 43.0612 319.488 43.0612 323.106V331.91H81.7264H81.6052Z" fill="#F8D63A"/>
<path d="M103.669 316.59H121.729V235.903H103.669V316.59Z" fill="#13847C"/>
<path d="M132.027 331.91V323.106C132.027 319.488 130.088 316.593 127.664 316.593H97.8465C95.4223 316.593 93.483 319.488 93.483 323.106V331.91H132.148H132.027Z" fill="#F8D63A"/>
<path d="M137.001 235.903H37.8527C34.5801 235.903 31.9135 233.249 31.9135 229.993V137.246C31.9135 133.989 34.5801 131.336 37.8527 131.336H137.001C140.273 131.336 142.94 133.989 142.94 137.246V229.993C142.94 233.249 140.273 235.903 137.001 235.903Z" fill="#45B6AE"/>
<path d="M128.513 201.047H46.4551C45.1218 201.047 44.031 199.961 44.031 198.635V153.166C44.031 151.839 45.1218 150.753 46.4551 150.753H128.513C129.846 150.753 130.937 151.839 130.937 153.166V198.635C130.937 199.961 129.846 201.047 128.513 201.047Z" fill="#13847C"/>
<path d="M40.3981 211.417C40.3981 208.402 42.8222 205.99 45.8524 205.99C48.8826 205.99 51.3068 208.402 51.3068 211.417C51.3068 214.432 48.8826 216.845 45.8524 216.845C42.8222 216.845 40.3981 214.432 40.3981 211.417Z" fill="#F8D63A"/>
<path d="M123.79 211.417C123.79 208.402 126.214 205.99 129.123 205.99C132.153 205.99 134.577 208.402 134.577 211.417C134.577 214.432 132.153 216.845 129.123 216.845C126.093 216.845 123.79 214.432 123.79 211.417Z" fill="#F8D63A"/>
<path d="M63.9076 214.918H111.057V208.646H63.9076V214.918Z" fill="#F8D63A"/>
<path d="M92.515 5.66629C92.515 2.89231 90.212 0.600769 87.4243 0.600769C84.6365 0.600769 82.3335 2.89231 82.3335 5.66629C82.3335 8.19905 84.2729 10.37 86.697 10.6112C86.697 17.3652 86.697 24.1193 86.697 30.8733C86.697 31.7175 88.0303 31.7175 88.0303 30.8733C88.0303 24.1193 88.0303 17.3652 88.0303 10.6112C90.4545 10.2494 92.3938 8.19905 92.3938 5.66629H92.515Z" fill="#F8D63A"/>
<path d="M79.4278 131.458H95.5484V115.9H79.4278V131.458Z" fill="#F8D63A"/>
<path d="M128.875 115.899H45.9694C42.818 115.899 40.2726 113.366 40.2726 110.23V37.8659C40.2726 33.8858 43.424 30.75 47.4239 30.75H128.633C131.906 30.75 134.572 33.4034 134.572 36.6598V110.23C134.572 113.366 132.027 115.899 128.875 115.899Z" fill="#45B6AE"/>
<path d="M134.697 60.4207C134.697 60.4207 134.697 60.4207 134.576 60.4207V87.4369C134.576 87.4369 134.576 87.4369 134.697 87.4369C142.212 87.4369 148.272 81.4065 148.272 73.9288C148.272 66.4511 142.212 60.4207 134.697 60.4207Z" fill="#F8D63A"/>
<path d="M40.2737 60.4207C40.2737 60.4207 40.2737 60.4207 40.3949 60.4207V87.4369C40.3949 87.4369 40.3949 87.4369 40.2737 87.4369C32.7588 87.4369 26.6984 81.4065 26.6984 73.9288C26.6984 66.4511 32.7588 60.4207 40.2737 60.4207Z" fill="#F8D63A"/>
<path d="M87.5431 88.8188C98.8154 88.8188 108.027 97.985 108.027 109.202H101.603C101.603 101.483 95.3003 95.0904 87.4218 95.0904C79.6645 95.0904 73.2405 101.362 73.2405 109.202H66.8165C66.8165 97.985 76.0283 88.8188 87.3006 88.8188H87.5431Z" fill="#F8D63A"/>
<path d="M61.9669 78.6288C54.8157 78.6288 49.1189 72.9602 49.1189 65.8443C49.1189 58.7285 54.8157 53.0599 61.9669 53.0599C69.1182 53.0599 74.815 58.7285 74.815 65.8443C74.815 72.9602 69.1182 78.6288 61.9669 78.6288Z" fill="#F8D63A"/>
<path d="M61.9676 75.4921C56.6345 75.4921 52.271 71.1502 52.271 65.8435C52.271 60.5367 56.6345 56.1949 61.9676 56.1949C67.3007 56.1949 71.6642 60.5367 71.6642 65.8435C71.6642 71.1502 67.3007 75.4921 61.9676 75.4921Z" fill="#13847C"/>
<path d="M57.3605 63.1912C56.2696 63.1912 55.4211 62.347 55.4211 61.2615C55.4211 60.176 56.2696 59.3318 57.3605 59.3318C58.4513 59.3318 59.2998 60.176 59.2998 61.2615C59.2998 62.347 58.4513 63.1912 57.3605 63.1912Z" fill="#FEFEFE"/>
<path d="M112.995 78.6288C105.844 78.6288 100.147 72.9602 100.147 65.8443C100.147 58.7285 105.844 53.0599 112.995 53.0599C120.146 53.0599 125.843 58.7285 125.843 65.8443C125.843 72.9602 120.146 78.6288 112.995 78.6288Z" fill="#F8D63A"/>
<path d="M113.002 75.4921C107.669 75.4921 103.305 71.1502 103.305 65.8435C103.305 60.5367 107.669 56.1949 113.002 56.1949C118.335 56.1949 122.699 60.5367 122.699 65.8435C122.699 71.1502 118.335 75.4921 113.002 75.4921Z" fill="#13847C"/>
<path d="M108.269 63.1912C107.179 63.1912 106.33 62.347 106.33 61.2615C106.33 60.176 107.179 59.3318 108.269 59.3318C109.36 59.3318 110.209 60.176 110.209 61.2615C110.209 62.347 109.36 63.1912 108.269 63.1912Z" fill="#FEFEFE"/>
<path d="M12.5178 239.643H25.1234V181.028H12.5178V239.643Z" fill="#45B6AE"/>
<path d="M32.0345 181.028H7.67178C5.85367 181.028 4.52039 179.58 4.52039 177.892V148.825C4.52039 147.016 5.97488 145.69 7.67178 145.69H32.0345V181.148V181.028Z" fill="#13847C"/>
<path d="M5.73346 267.02L12.1575 260.748C10.4606 259.06 9.4909 256.768 9.4909 254.356C9.4909 249.29 13.612 245.19 18.7027 245.19C23.7934 245.19 27.9145 249.29 27.9145 254.356C27.9145 256.406 27.3084 258.215 26.0963 259.904L33.3688 265.331C35.7929 262.195 37.005 258.456 37.005 254.476C37.005 244.466 28.7629 236.265 18.7027 236.265C8.64245 236.265 0.40033 244.466 0.40033 254.476C0.40033 259.301 2.21844 263.763 5.61226 267.14L5.73346 267.02Z" fill="#F8D63A"/>
<path d="M149.724 239.643H162.451V181.028H149.724V239.643Z" fill="#45B6AE"/>
<path d="M142.935 181.028H167.298C169.116 181.028 170.449 179.58 170.449 177.892V148.825C170.449 147.016 168.995 145.69 167.298 145.69H142.935V181.148V181.028Z" fill="#13847C"/>
<path d="M169.117 267.02L162.693 260.748C164.39 259.06 165.359 256.768 165.359 254.356C165.359 249.29 161.238 245.19 156.148 245.19C151.057 245.19 146.936 249.29 146.936 254.356C146.936 256.406 147.542 258.215 148.754 259.904L141.481 265.331C139.057 262.195 137.845 258.456 137.845 254.476C137.845 244.466 146.087 236.265 156.148 236.265C166.208 236.265 174.45 244.466 174.45 254.476C174.45 259.301 172.632 263.763 169.238 267.14L169.117 267.02Z" fill="#F8D63A"/>
</svg>
